# xmcd CD database file
#
# Track frame offsets:
#	150
#	10402
#	23818
#	37674
#	51612
#	67232
#	81469
#	94679
#	105911
#	118552
#	129842
#	143122
#
# Disc length: 2075 seconds
#
# Revision: 0
# Processed by: cddbd v1.5.2PL0 Copyright (c) Steve Scherf et al.
# Submitted via: CDex 1.51
#
DISCID=9b08190c
DTITLE=Barbara Thompson - Memories Of Patsy Cline
DYEAR=1900
DGENRE=Country
TTITLE0=Barbara Thompson -Back In Baby's Arms
TTITLE1=Barbara Thompson - I'll Sail My Ship Alone
TTITLE2=Barbara Thompson - Blue Moon Of Kentucky
TTITLE3=Barbara Thompson - The Wayward Wind
TTITLE4=Barbara Thompson - You Belong To Me
TTITLE5=Barbara Thompson - South Of The Border
TTITLE6=Barbara Thompson - Crazy
TTITLE7=Barbara Thompson - Sweet Dreams Of You
TTITLE8=Barbara Thompson - Poor Man's Roses
TTITLE9=Barbara Thompson - Walking After Midnight
TTITLE10=Barbara Thompson - San Antonio Rose
TTITLE11=Barbara Thompson - Just A Closer Walk With Thee
EXTD=
EXTT0=
EXTT1=
EXTT2=
EXTT3=
EXTT4=
EXTT5=
EXTT6=
EXTT7=
EXTT8=
EXTT9=
EXTT10=
EXTT11=
PLAYORDER=
